<svg xmlns="http://www.w3.org/2000/svg" width="400" height="400"><g fill-rule="evenodd"><path d="M236.6 37.68c-.44.251-16.953 16.611-36.695 36.357-21.891 21.894-36.006 35.724-36.177 35.447-.285-.461-.491-1.456-1.342-6.484-.261-1.54-.734-3.61-1.053-4.6-.318-.99-.728-2.34-.911-3-.346-1.248-2.125-5.156-2.822-6.2-.22-.33-.583-1.05-.806-1.6-1.066-2.627-4.084-6.591-8.373-11-1.071-1.1-2.42-2.36-2.999-2.8a32.265 32.265 0 0 1-1.738-1.42c-.376-.341-1.206-.971-1.844-1.4l-2.2-1.481a25.123 25.123 0 0 0-2.24-1.306c-.66-.333-1.47-.764-1.8-.959-1.708-1.006-4.874-2.386-6.058-2.639-.738-.158-1.552-.456-1.809-.662-.256-.207-1.696-.561-3.2-.787-1.503-.227-3.504-.667-4.447-.979-2.543-.841-59.643-.843-61.224-.003a23.99 23.99 0 0 1-2.376 1.055c-3.908 1.457-6.887 6.557-6.884 11.787.003 9.492 6.112 13.263 21.66 13.372l3.063.022.281 2.045c.455 3.309 3.809 7.381 6.883 8.357.611.194 1.831.625 2.711.958 1.177.445 3.298.61 8.02.622 6.89.019 7.38.155 7.38 2.038 0 5.697 6.554 10.057 16.8 11.176 10.179 1.112 20 11.495 20 21.147v2.794l-36.536 36.531C79.769 194.161 63.086 211.05 62.791 211.6c-1.032 1.921-1.168 32.936-.166 37.874.328 1.617 110.993 112.126 112.285 112.126.934 0 5.055-3.942 26.031-24.9 13.706-13.695 27.585-27.42 30.841-30.5 3.256-3.08 7.966-7.67 10.467-10.2 28.501-28.832 30.252-30.482 30.684-28.917.559 2.023 1.434 7.039 1.653 9.475.413 4.593 4.02 9.16 8.221 10.407 3.646 1.083 3.437.665 3.714 7.417.424 10.32 3.71 16.977 8.78 17.788.914.146 2.241.623 2.948 1.06l1.287.795.151 7.088c.208 9.692 2.729 14.855 7.858 16.087 4.149.996 4.965 1.089 6.383.729l3.014-.763c2.711-.684 5.558-3.254 7.458-6.734l1-1.832v-31c0-28.173-.062-31.185-.683-33.023-.376-1.113-.808-2.823-.961-3.8-.153-.977-.61-2.404-1.017-3.171-.406-.767-.74-1.667-.742-2-.001-.333-.36-1.146-.797-1.806-.437-.66-.796-1.432-.797-1.716-.002-.284-.339-1.004-.749-1.6-.41-.596-1.417-2.13-2.238-3.408-1.574-2.454-4.898-6.596-6.641-8.276-2.091-2.016-4.936-4.4-5.251-4.4-2.045 0-.273-1.892 33.385-35.654 5.89-5.908 10.885-11.205 11.1-11.77.234-.615.391-8.386.391-19.335v-18.306l-55.5-55.471c-30.525-30.509-55.86-55.734-56.3-56.055-.963-.702-.99-.704-2-.129m57.302 56.823 55.698 55.704v37.057l-19.792 19.868c-21.511 21.593-26.208 26.409-26.208 26.874 0 .167 1.26 1.322 2.8 2.567 5.075 4.1 9.481 9.461 12.514 15.227 1.144 2.174 2.686 5.742 2.686 6.215 0 .255.273 1.039.606 1.742 2.113 4.452 2.672 14.167 2.499 43.443l-.143 24.2-.936 1.982c-3.981 8.43-15.303 10.121-20.206 3.018-2.174-3.149-2.78-5.828-2.943-13-.158-6.975-.415-7.798-2.439-7.802-6.649-.015-10.038-6.36-10.038-18.799 0-5.079-.332-5.747-3.164-6.354-5.623-1.206-8.601-5.232-9.465-12.796-1.319-11.554-1.711-11.532-13.976.794-5.277 5.304-9.865 9.849-10.195 10.1-.33.252-.87 1.027-1.2 1.725-1.182 2.496-5.213 6.751-17.561 18.532-3.804 3.63-18.123 17.805-31.82 31.5-14.991 14.989-25.197 24.9-25.643 24.9-.45 0-22.443-21.731-56.158-55.489L63.4 250.222l-.115-18.211c-.063-10.016-.017-18.608.103-19.093.12-.485 16.86-17.528 37.201-37.873 23.333-23.34 37.078-37.373 37.241-38.024.263-1.045.23-1.344-.615-5.621-.977-4.948-5.865-12.013-10.464-15.126-1.927-1.304-5.479-3.074-6.17-3.074-.304 0-1.324-.26-2.267-.578-.943-.318-3.571-.768-5.84-.999-6.665-.678-10.531-3.908-11.846-9.897-.448-2.037-.957-2.213-6.727-2.324C82.16 99.177 75.6 95.701 75.6 89.705c0-2.4-.846-2.903-4.923-2.925-7.262-.041-11.912-.605-14.077-1.708-7.736-3.942-8.107-14.788-.688-20.162 2.901-2.102 4.947-2.216 35.488-1.987 31.353.234 30.401.148 40 3.649 2.266.827 5.965 2.814 9 4.835 2.457 1.636 3.396 2.397 6.497 5.264 3.324 3.073 6.8 7.592 8.935 11.616.773 1.457 1.53 2.844 1.683 3.081 1.164 1.806 3.375 9.334 3.769 12.832.783 6.943.844 7.19 1.812 7.327.723.103 7.935-6.912 37.318-36.3C220.446 55.192 237.144 38.8 237.52 38.8c.376 0 25.748 25.067 56.382 55.703m-87.77-.833c-30.204 30.195-30.475 30.48-29.939 31.5.75 1.43 10.347 10.83 11.056 10.83.646 0 3.731-2.944 25.361-24.2 15.424-15.158 16.229-15.813 17.753-14.433 2.729 2.469 8.844 2.788 12.941.675 1.324-.683 2.758-1.242 3.184-1.242.959 0 43.652 42.887 43.842 44.04.071.434-.319 1.554-.867 2.489-2.172 3.706-2.174 9.722-.005 12.918 1.689 2.49 1.938 2.162-12.86 16.955L262.797 187l-5.734.136c-6.759.161-6.82.13-7.233-3.61-1.682-15.242-12.859-28.206-27.938-32.409-6.497-1.81-18.198-1.188-18.617.991-.181.94 58.367 59.625 59.289 59.429.853-.183 61.005-60.294 61.447-61.406.433-1.088-85.038-86.931-86.555-86.931-.584 0-10.211 9.364-31.324 30.47m-87.436 87.436C98.908 200.901 88.4 211.688 88.4 212.207c0 1.102 85.499 86.593 86.602 86.593 1.282 0 61.957-60.871 61.646-61.845-.556-1.741-59.009-59.575-59.747-59.115-1.926 1.2-2.343 11.714-.728 18.36 3.686 15.179 19.809 28.6 34.357 28.6 1.755 0 1.94.714 1.8 6.976l-.13 5.822-13.798 13.801c-14.715 14.719-14.655 14.673-16.802 13.008-2.964-2.3-10.186-2.292-13.117.013-2.221 1.748-1.56 2.306-24.784-20.921-21.607-21.609-22.357-22.456-21.166-23.868 3.014-3.572 2.947-10.806-.137-14.726-1.664-2.116-3.39-.171 28.704-32.359 5.646-5.662 10.1-10.444 10.1-10.843 0-1.163-10.014-10.903-11.209-10.903-.789 0-7.354 6.357-31.295 30.306" fill="#737373"/><path d="M236 .4c0 .22-.36.4-.8.4-.45 0-.8.267-.8.61 0 .335-.425.772-.945.969-.52.198-1.043.733-1.163 1.19-.119.457-.504.831-.855.831-.37 0-.637.335-.637.8 0 .533-.267.8-.8.8s-.8.267-.8.8-.267.8-.8.8-.8.267-.8.8-.267.8-.8.8-.8.267-.8.8-.267.8-.8.8c-.45 0-.8.267-.8.61 0 .335-.425.772-.945.969-.52.198-1.043.733-1.163 1.19-.119.457-.504.831-.855.831-.37 0-.637.335-.637.8 0 .533-.267.8-.8.8s-.8.267-.8.8-.267.8-.8.8-.8.267-.8.8-.267.8-.8.8-.8.267-.8.8-.267.8-.8.8c-.45 0-.8.267-.8.61 0 .335-.425.772-.945.969-.52.198-1.043.733-1.163 1.19-.119.457-.504.831-.855.831-.37 0-.637.335-.637.8 0 .533-.267.8-.8.8s-.8.267-.8.8-.267.8-.8.8-.8.267-.8.8-.267.8-.8.8-.8.267-.8.8-.267.8-.8.8c-.45 0-.8.267-.8.61 0 .335-.425.772-.945.969-.52.198-1.043.733-1.163 1.19-.119.457-.504.831-.855.831-.37 0-.637.335-.637.8 0 .533-.267.8-.8.8s-.8.267-.8.8-.267.8-.8.8-.8.267-.8.8-.267.8-.8.8-.8.267-.8.8-.267.8-.8.8c-.45 0-.8.267-.8.61 0 .335-.425.772-.945.969-.52.198-1.043.733-1.163 1.19-.119.457-.504.831-.855.831-.37 0-.637.335-.637.8 0 .533-.267.8-.8.8s-.8.267-.8.8-.267.8-.8.8-.8.267-.8.8-.267.8-.8.8-.8.267-.8.8-.267.8-.8.8c-.45 0-.8.267-.8.61 0 .335-.425.772-.945.969-.52.198-1.043.733-1.163 1.19-.119.457-.504.831-.855.831-.37 0-.637.335-.637.8 0 .533-.267.8-.8.8s-.8.267-.8.8-.267.8-.8.8-.8.267-.8.8-.267.8-.8.8-.8.267-.8.8-.267.8-.8.8c-.45 0-.8.267-.8.61 0 .755-1.624 1.413-2.757 1.117-.481-.126-.843-.544-.843-.974 0-.486-.283-.753-.8-.753-.44 0-.8-.262-.8-.582 0-.73-1.854-2.618-2.572-2.618-.294 0-.629-.36-.744-.8a1.065 1.065 0 0 0-1.047-.8c-.583 0-.837-.254-.837-.837 0-.488-.319-.921-.763-1.037-.42-.11-.853-.543-.963-.963-.109-.42-.486-.763-.837-.763a.628.628 0 0 1-.637-.613c0-.336-.315-.725-.7-.864-.385-.138-1.022-.582-1.416-.987-.393-.405-1.137-.736-1.653-.736-.601 0-1.013-.287-1.147-.8-.12-.46-.546-.8-1-.8-.454 0-.88-.34-1-.8-.16-.613-.546-.8-1.647-.8-1.142 0-1.437-.155-1.437-.755 0-.547-.386-.828-1.395-1.018-.778-.146-1.581-.608-1.814-1.044-.305-.569-.84-.783-1.958-.783-1.203 0-1.585-.175-1.749-.8-.157-.599-.546-.8-1.55-.8-.908 0-1.503-.258-1.841-.8-.399-.639-.933-.8-2.65-.8-1.813 0-2.182-.125-2.359-.8-.182-.696-.546-.8-2.785-.8-2.067 0-2.718-.158-3.299-.8-.667-.737-1.232-.8-7.2-.8s-6.533-.063-7.2-.8c-1.136-1.255-54.313-1.255-55.909 0-.843.663-1.623.8-4.558.8-3.107 0-3.602.098-4.04.8-.391.626-.933.8-2.496.8-1.73 0-1.997.107-1.997.8 0 .652-.267.8-1.437.8-1.101 0-1.487.187-1.647.8-.134.511-.546.8-1.142.8-.513 0-1.418.45-2.012 1-.593.55-1.323 1-1.62 1-.298 0-.542.36-.542.8 0 .533-.267.8-.8.8s-.8.267-.8.8c0 .524-.267.8-.773.8-.425 0-.887.36-1.027.8-.14.44-.529.8-.864.8-.336 0-.705.36-.82.8-.115.44-.464.8-.775.8s-.679.315-.818.7c-.138.385-.582 1.022-.987 1.416-.405.393-.736 1.248-.736 1.9 0 .917-.18 1.184-.8 1.184-.667 0-.8.267-.8 1.6 0 1.333-.133 1.6-.8 1.6-.663 0-.8.267-.8 1.553 0 1.175-.18 1.601-.739 1.747-.747.195-1.247 1.973-1.257 4.469-.002.642-.319 1.516-.704 1.94-1.327 1.464-1.221 15.091.118 15.091.394 0 .582.435.582 1.344 0 2.966.491 5.031 1.253 5.273.563.178.747.625.747 1.81 0 1.306.136 1.573.8 1.573.667 0 .8.267.8 1.6 0 1.333.133 1.6.8 1.6.545 0 .8.267.8.837 0 .501.321.922.8 1.047.511.134.8.546.8 1.142 0 .513.45 1.418 1 2.012.55.593 1 1.233 1 1.42 0 .188.36.342.8.342.533 0 .8.267.8.8s.267.8.8.8.8.267.8.8c0 .524.267.8.773.8.425 0 .885.354 1.023.786.156.492.75.88 1.59 1.038.848.159 1.414.531 1.54 1.014.109.419.503.762.873.762.371 0 1.132.36 1.692.8.559.44 1.313.8 1.674.8s.965.36 1.342.8c.507.592 1.18.8 2.593.8 1.474 0 2.021.182 2.407.8.44.704.933.8 4.096.8 3.384 0 3.597.05 3.597.837 0 .488.319.921.763 1.037.42.11.853.543.963.963.109.42.465.763.79.763s.685.36.8.8c.12.46.546.8 1 .8.454 0 .88.34 1 .8.16.613.546.8 1.647.8 1.17 0 1.437.148 1.437.8 0 .533.267.8.8.8.44 0 1.16.36 1.6.8.563.563 1.333.8 2.6.8 1.491 0 1.8.128 1.8.748 0 .858 1.597 1.24 5.211 1.248 1.713.003 2.366.184 2.896.804.377.44.936.8 1.242.8.307 0 .652.36.767.8.115.44.475.8.8.8.325 0 .685.36.8.8.115.44.496.8.847.8.35 0 .997.36 1.437.8.44.44 1.16.8 1.6.8.533 0 .8.267.8.8 0 .668.267.8 1.613.8 1.17 0 1.683.192 1.87.7.353.956.92 1.287 2.217 1.294.679.004 1.1.223 1.1.573 0 .311.225.657.5.768.4.161.4.208 0 .233-.275.018-.5.392-.5.832 0 .533-.267.8-.8.8s-.8.267-.8.8-.267.8-.8.8c-.45 0-.8.267-.8.61 0 .335-.425.772-.945.969-.52.198-1.043.733-1.163 1.19-.119.457-.504.831-.855.831-.37 0-.637.335-.637.8 0 .533-.267.8-.8.8s-.8.267-.8.8-.267.8-.8.8-.8.267-.8.8-.267.8-.8.8-.8.267-.8.8-.267.8-.8.8c-.45 0-.8.267-.8.61 0 .335-.425.772-.945.969-.52.198-1.043.733-1.163 1.19-.119.457-.504.831-.855.831-.37 0-.637.335-.637.8 0 .533-.267.8-.8.8s-.8.267-.8.8-.267.8-.8.8-.8.267-.8.8-.267.8-.8.8-.8.267-.8.8-.267.8-.8.8c-.45 0-.8.267-.8.61 0 .335-.425.772-.945.969-.52.198-1.043.733-1.163 1.19-.119.457-.504.831-.855.831-.37 0-.637.335-.637.8 0 .533-.267.8-.8.8s-.8.267-.8.8-.267.8-.8.8-.8.267-.8.8-.267.8-.8.8-.8.267-.8.8-.267.8-.8.8c-.45 0-.8.267-.8.61 0 .335-.425.772-.945.969-.52.198-1.043.733-1.163 1.19-.119.457-.504.831-.855.831-.37 0-.637.335-.637.8 0 .533-.267.8-.8.8s-.8.267-.8.8-.267.8-.8.8-.8.267-.8.8-.267.8-.8.8-.8.267-.8.8-.267.8-.8.8c-.45 0-.8.267-.8.61 0 .335-.425.772-.945.969-.52.198-1.043.733-1.163 1.19-.119.457-.504.831-.855.831-.37 0-.637.335-.637.8 0 .533-.267.8-.8.8s-.8.267-.8.8-.267.8-.8.8-.8.267-.8.8-.267.8-.8.8-.8.267-.8.8-.267.8-.8.8c-.45 0-.8.267-.8.61 0 .335-.425.772-.945.969-.52.198-1.043.733-1.163 1.19-.119.457-.504.831-.855.831-.37 0-.637.335-.637.8 0 .533-.267.8-.8.8s-.8.267-.8.8-.267.8-.8.8-.8.267-.8.8-.267.8-.8.8c-.793 0-.8.267-.8 31.6 0 31.333.007 31.6.8 31.6.533 0 .8.267.8.8s.267.8.8.8c.545 0 .8.267.8.837 0 .488.319.921.763 1.037.42.11.853.543.963.963.109.42.465.763.79.763s.685.36.8.8c.115.44.484.8.82.8.335 0 .724.36.864.8.14.44.602.8 1.027.8.506 0 .773.276.773.8 0 .533.267.8.8.8s.8.267.8.8.267.8.8.8c.545 0 .8.267.8.837 0 .488.319.921.763 1.037.42.11.853.543.963.963.109.42.465.763.79.763s.685.36.8.8c.115.44.484.8.82.8.335 0 .724.36.864.8.14.44.602.8 1.027.8.506 0 .773.276.773.8 0 .533.267.8.8.8s.8.267.8.8.267.8.8.8c.545 0 .8.267.8.837 0 .488.319.921.763 1.037.42.11.853.543.963.963.109.42.465.763.79.763s.685.36.8.8c.115.44.484.8.82.8.335 0 .724.36.864.8.14.44.602.8 1.027.8.506 0 .773.276.773.8 0 .533.267.8.8.8s.8.267.8.8.267.8.8.8c.545 0 .8.267.8.837 0 .501.321.922.8 1.047.44.115.8.475.8.8 0 .325.36.685.8.8.44.115.8.475.8.8 0 .325.354.683.787.797.432.113.895.546 1.027.962.132.416.588.757 1.013.757.506 0 .773.276.773.8 0 .533.267.8.8.8s.8.267.8.8.267.8.8.8c.545 0 .8.267.8.837 0 .501.321.922.8 1.047.44.115.8.475.8.8 0 .325.36.685.8.8.44.115.8.475.8.8 0 .325.343.681.763.79.42.11.853.543.963.963.116.444.549.763 1.037.763.57 0 .837.255.837.8 0 .533.267.8.8.8s.8.267.8.8.267.8.8.8c.545 0 .8.267.8.837 0 .501.321.922.8 1.047.44.115.8.475.8.8 0 .325.36.685.8.8.44.115.8.475.8.8 0 .325.343.681.763.79.42.11.853.543.963.963.116.444.549.763 1.037.763.57 0 .837.255.837.8 0 .533.267.8.8.8s.8.267.8.8.267.8.8.8c.545 0 .8.267.8.837 0 .501.321.922.8 1.047.44.115.8.475.8.8 0 .325.36.685.8.8.44.115.8.475.8.8 0 .325.343.681.763.79.42.11.853.543.963.963.116.444.549.763 1.037.763.57 0 .837.255.837.8 0 .533.267.8.8.8s.8.267.8.8.267.8.8.8c.545 0 .8.267.8.837 0 .501.321.922.8 1.047.44.115.8.475.8.8 0 .325.36.685.8.8.44.115.8.475.8.8 0 .325.343.681.763.79.42.11.853.543.963.963.116.444.549.763 1.037.763.57 0 .837.255.837.8 0 .533.267.8.8.8s.8.267.8.8.267.8.8.8c.545 0 .8.267.8.837 0 .501.321.922.8 1.047.44.115.8.475.8.8 0 .325.36.685.8.8.44.115.8.475.8.8 0 .325.343.681.763.79.42.11.853.543.963.963.116.444.549.763 1.037.763.57 0 .837.255.837.8 0 .533.267.8.8.8s.8.267.8.8.267.8.8.8c.545 0 .8.267.8.837 0 .501.321.922.8 1.047.44.115.8.475.8.8 0 .325.36.685.8.8.44.115.8.475.8.8 0 .325.343.681.763.79.42.11.853.543.963.963.116.444.549.763 1.037.763.57 0 .837.255.837.8 0 .533.267.8.8.8s.8.267.8.8.267.8.8.8c.545 0 .8.267.8.837 0 .501.321.922.8 1.047.44.115.8.475.8.8 0 .325.36.685.8.8.44.115.8.475.8.8 0 .325.343.681.763.79.42.11.853.543.963.963.116.444.549.763 1.037.763.57 0 .837.255.837.8 0 .533.267.8.8.8s.8.267.8.8.267.8.8.8c.545 0 .8.267.8.837 0 .501.321.922.8 1.047.44.115.8.475.8.8 0 .325.36.685.8.8.44.115.8.475.8.8 0 .325.343.681.763.79.42.11.853.543.963.963.116.444.549.763 1.037.763.57 0 .837.255.837.8 0 .533.267.8.8.8s.8.267.8.8.267.8.8.8c.545 0 .8.267.8.837 0 .501.321.922.8 1.047.44.115.8.475.8.8 0 .325.36.685.8.8.44.115.8.475.8.8 0 .325.343.681.763.79.42.11.853.543.963.963.116.444.549.763 1.037.763.57 0 .837.255.837.8 0 .533.267.8.8.8s.8.267.8.8.267.8.8.8c.545 0 .8.267.8.837 0 .501.321.922.8 1.047.44.115.8.382.8.593 0 2.117 6.16 3.926 6.674 1.96.11-.42.543-.853.963-.963.42-.109.763-.465.763-.79s.36-.685.8-.8c.479-.125.8-.546.8-1.047 0-.57.255-.837.8-.837.533 0 .8-.267.8-.8s.267-.8.8-.8.8-.267.8-.8c0-.545.267-.8.837-.8.488 0 .921-.319 1.037-.763.11-.42.543-.853.963-.963.42-.109.763-.465.763-.79s.36-.685.8-.8c.44-.115.8-.475.8-.8 0-.325.36-.685.8-.8.479-.125.8-.546.8-1.047 0-.57.255-.837.8-.837.533 0 .8-.267.8-.8s.267-.8.8-.8.8-.267.8-.8c0-.545.267-.8.837-.8.488 0 .921-.319 1.037-.763.11-.42.543-.853.963-.963.42-.109.763-.465.763-.79s.36-.685.8-.8c.44-.115.8-.475.8-.8 0-.325.36-.685.8-.8.479-.125.8-.546.8-1.047 0-.57.255-.837.8-.837.533 0 .8-.267.8-.8s.267-.8.8-.8.8-.267.8-.8c0-.545.267-.8.837-.8.488 0 .921-.319 1.037-.763.11-.42.543-.853.963-.963.42-.109.763-.465.763-.79s.36-.685.8-.8c.44-.115.8-.475.8-.8 0-.325.36-.685.8-.8.479-.125.8-.546.8-1.047 0-.57.255-.837.8-.837.533 0 .8-.267.8-.8s.267-.8.8-.8.8-.267.8-.8c0-.545.267-.8.837-.8.488 0 .921-.319 1.037-.763.11-.42.543-.853.963-.963.42-.109.763-.465.763-.79s.36-.685.8-.8c.44-.115.8-.475.8-.8 0-.325.36-.685.8-.8.479-.125.8-.546.8-1.047 0-.57.255-.837.8-.837.533 0 .8-.267.8-.8s.267-.8.8-.8.8-.267.8-.8c0-.545.267-.8.837-.8.488 0 .921-.319 1.037-.763.11-.42.543-.853.963-.963.42-.109.763-.465.763-.79s.36-.685.8-.8c.44-.115.8-.475.8-.8 0-.325.36-.685.8-.8.479-.125.8-.546.8-1.047 0-.57.255-.837.8-.837.533 0 .8-.267.8-.8s.267-.8.8-.8.8-.267.8-.8c0-.545.267-.8.837-.8.488 0 .921-.319 1.037-.763.11-.42.543-.853.963-.963.42-.109.763-.465.763-.79s.36-.685.8-.8c.44-.115.8-.475.8-.8 0-.325.36-.685.8-.8.479-.125.8-.546.8-1.047 0-.57.255-.837.8-.837.533 0 .8-.267.8-.8s.267-.8.8-.8.8-.267.8-.8c0-.545.267-.8.837-.8.488 0 .921-.319 1.037-.763.11-.42.543-.853.963-.963.42-.109.763-.465.763-.79s.36-.685.8-.8c.44-.115.8-.475.8-.8 0-.325.36-.685.8-.8.479-.125.8-.546.8-1.047 0-.57.255-.837.8-.837.533 0 .8-.267.8-.8s.267-.8.8-.8.8-.267.8-.8c0-.545.267-.8.837-.8.488 0 .921-.319 1.037-.763.11-.42.543-.853.963-.963.42-.109.763-.465.763-.79s.36-.685.8-.8c.44-.115.8-.475.8-.8 0-.325.36-.685.8-.8.479-.125.8-.546.8-1.047 0-1.101 1.453-1.131 1.8-.037.14.44.496.8.792.8.318 0 .651.673.816 1.649.192 1.136.514 1.71 1.035 1.846.551.144.757.56.757 1.525 0 .975.212 1.393.8 1.58.44.14.8.602.8 1.027 0 .506.276.773.8.773.545 0 .8.267.8.837 0 .501.321.922.8 1.047.44.115.8.475.8.8 0 .325.339.679.752.788.576.15.799.674.948 2.229.119 1.235.452 2.221.848 2.51.408.298.654 1.06.656 2.033.008 2.821.452 4.52 1.247 4.772.565.179.749.625.749 1.811 0 1.306.136 1.573.8 1.573.667 0 .8.267.8 1.6 0 1.333.133 1.6.8 1.6.545 0 .8.267.8.837 0 .501.321.922.8 1.047.523.137.8.546.8 1.182 0 .535.45 1.389 1 1.899s1 1.131 1 1.381.36.454.8.454c.533 0 .8.267.8.8s.267.8.8.8.8.267.8.8c0 .44.262.8.581.8 1.002 0 2.619.904 2.619 1.464 0 .295.339.536.753.536.417 0 .847.357.963.8.161.618.546.8 1.684.8s1.523.182 1.684.8c.148.566.546.8 1.359.8.717 0 1.338.301 1.65.8.365.585.933.8 2.114.8 1.12 0 1.825.245 2.3.8 1.061 1.239 20.254 1.239 21.493 0 .523-.523 1.333-.8 2.338-.8 1.03 0 1.777-.264 2.262-.8.401-.443 1.232-.8 1.862-.8.871 0 1.138-.187 1.138-.8 0-.667.267-.8 1.6-.8 1.333 0 1.6-.133 1.6-.8 0-.519.267-.8.758-.8.417 0 1.182-.447 1.7-.993s1.245-.996 1.615-1c.37-.004.787-.367.927-.807.14-.44.602-.8 1.027-.8.506 0 .773-.276.773-.8 0-.45.267-.8.61-.8.335 0 .772-.425.969-.945.198-.52.644-1.055.99-1.188.378-.145.631-.717.631-1.427 0-.924.198-1.212.9-1.312.578-.082.946-.45 1.028-1.028.07-.495.383-.9.695-.9.351 0 .663-.598.818-1.565.17-1.066.491-1.628 1.005-1.763.561-.147.754-.562.754-1.62 0-1.014.23-1.547.8-1.852.689-.369.8-.838.8-3.367 0-2.603.092-2.964.8-3.149.792-.207.8-.546.8-33.414 0-33.455-.031-34.47-1.043-34.47-.439 0-.557-.853-.557-4.037 0-3.701-.067-4.055-.8-4.247-.683-.179-.8-.546-.8-2.509 0-1.693-.211-2.567-.8-3.316-.471-.599-.8-1.623-.8-2.492 0-1.137-.183-1.522-.8-1.683-.554-.145-.8-.546-.8-1.303 0-1.614-.796-3.613-1.439-3.613-.357 0-.561-.438-.561-1.204 0-.709-.329-1.485-.8-1.889-.44-.377-.8-1.005-.8-1.396 0-.444-.3-.711-.8-.711-.587 0-.8-.267-.8-1s.213-1 .8-1c.533 0 .8-.267.8-.8s.267-.8.8-.8.8-.267.8-.8c0-.545.267-.8.837-.8.501 0 .922-.321 1.047-.8.115-.44.475-.8.8-.8.325 0 .685-.36.8-.8.115-.44.475-.8.8-.8.325 0 .681-.343.79-.763.11-.42.543-.853.963-.963.444-.116.763-.549.763-1.037 0-.57.255-.837.8-.837.533 0 .8-.267.8-.8s.267-.8.8-.8.8-.267.8-.8c0-.545.267-.8.837-.8.501 0 .922-.321 1.047-.8.115-.44.475-.8.8-.8.325 0 .685-.36.8-.8.115-.44.475-.8.8-.8.325 0 .681-.343.79-.763.11-.42.543-.853.963-.963.444-.116.763-.549.763-1.037 0-.57.255-.837.8-.837.533 0 .8-.267.8-.8s.267-.8.8-.8.8-.267.8-.8c0-.545.267-.8.837-.8.501 0 .922-.321 1.047-.8.115-.44.475-.8.8-.8.325 0 .685-.36.8-.8.115-.44.475-.8.8-.8.325 0 .681-.343.79-.763.11-.42.543-.853.963-.963.444-.116.763-.549.763-1.037 0-.57.255-.837.8-.837.533 0 .8-.267.8-.8s.267-.8.8-.8.8-.267.8-.8c0-.545.267-.8.837-.8.501 0 .922-.321 1.047-.8.115-.44.439-.8.72-.8.955 0 .996-1.269.996-30.8 0-29.642-.038-30.8-1.016-30.8-.291 0-.644-.36-.784-.8-.14-.44-.602-.8-1.027-.8-.506 0-.773-.276-.773-.8 0-.45-.267-.8-.61-.8-.335 0-.781-.45-.99-1-.209-.55-.634-1-.943-1-.31 0-.658-.36-.773-.8-.115-.44-.475-.8-.8-.8-.325 0-.685-.36-.8-.8-.115-.44-.475-.8-.8-.8-.325 0-.685-.36-.8-.8-.115-.44-.484-.8-.82-.8-.335 0-.724-.36-.864-.8-.14-.44-.602-.8-1.027-.8-.506 0-.773-.276-.773-.8 0-.45-.267-.8-.61-.8-.335 0-.781-.45-.99-1-.209-.55-.655-1-.99-1-.343 0-.61-.35-.61-.8 0-.517-.267-.8-.753-.8-.417 0-.847-.357-.963-.8-.115-.44-.475-.8-.8-.8-.325 0-.685-.36-.8-.8-.115-.44-.484-.8-.82-.8-.335 0-.724-.36-.864-.8-.14-.44-.602-.8-1.027-.8-.506 0-.773-.276-.773-.8 0-.45-.267-.8-.61-.8-.335 0-.781-.45-.99-1-.209-.55-.655-1-.99-1-.343 0-.61-.35-.61-.8 0-.517-.267-.8-.753-.8-.417 0-.847-.357-.963-.8-.115-.44-.475-.8-.8-.8-.325 0-.685-.36-.8-.8-.115-.44-.484-.8-.82-.8-.335 0-.724-.36-.864-.8-.14-.44-.602-.8-1.027-.8-.506 0-.773-.276-.773-.8 0-.45-.267-.8-.61-.8-.335 0-.781-.45-.99-1-.209-.55-.655-1-.99-1-.343 0-.61-.35-.61-.8 0-.533-.267-.8-.8-.8s-.8-.267-.8-.8c0-.517-.267-.8-.753-.8-.417 0-.847-.357-.963-.8-.115-.44-.484-.8-.82-.8-.335 0-.724-.36-.864-.8-.14-.44-.602-.8-1.027-.8-.506 0-.773-.276-.773-.8 0-.45-.267-.8-.61-.8-.335 0-.781-.45-.99-1-.209-.55-.655-1-.99-1-.343 0-.61-.35-.61-.8 0-.533-.267-.8-.8-.8s-.8-.267-.8-.8c0-.517-.267-.8-.753-.8-.417 0-.847-.357-.963-.8-.115-.44-.484-.8-.82-.8-.335 0-.724-.36-.864-.8-.14-.44-.602-.8-1.027-.8-.506 0-.773-.276-.773-.8 0-.45-.267-.8-.61-.8-.335 0-.781-.45-.99-1-.209-.55-.634-1-.943-1-.31 0-.658-.36-.773-.8-.115-.44-.475-.8-.8-.8-.325 0-.685-.36-.8-.8-.115-.44-.475-.8-.8-.8-.325 0-.685-.36-.8-.8-.115-.44-.484-.8-.82-.8-.335 0-.724-.36-.864-.8-.14-.44-.602-.8-1.027-.8-.506 0-.773-.276-.773-.8 0-.45-.267-.8-.61-.8-.335 0-.781-.45-.99-1-.209-.55-.655-1-.99-1-.343 0-.61-.35-.61-.8 0-.517-.267-.8-.753-.8-.417 0-.847-.357-.963-.8-.115-.44-.475-.8-.8-.8-.325 0-.685-.36-.8-.8-.115-.44-.484-.8-.82-.8-.335 0-.724-.36-.864-.8-.14-.44-.602-.8-1.027-.8-.506 0-.773-.276-.773-.8 0-.45-.267-.8-.61-.8-.335 0-.781-.45-.99-1-.209-.55-.655-1-.99-1-.343 0-.61-.35-.61-.8 0-.517-.267-.8-.753-.8-.417 0-.847-.357-.963-.8-.115-.44-.475-.8-.8-.8-.325 0-.685-.36-.8-.8-.115-.44-.484-.8-.82-.8-.335 0-.724-.36-.864-.8-.14-.44-.602-.8-1.027-.8-.506 0-.773-.276-.773-.8 0-.45-.267-.8-.61-.8-.335 0-.781-.45-.99-1-.209-.55-.655-1-.99-1-.343 0-.61-.35-.61-.8 0-.533-.267-.8-.8-.8s-.8-.267-.8-.8c0-.517-.267-.8-.753-.8-.417 0-.847-.357-.963-.8-.115-.44-.484-.8-.82-.8-.335 0-.724-.36-.864-.8-.14-.44-.602-.8-1.027-.8-.506 0-.773-.276-.773-.8 0-.45-.267-.8-.61-.8-.335 0-.781-.45-.99-1-.209-.55-.655-1-.99-1-.343 0-.61-.35-.61-.8 0-.533-.267-.8-.8-.8s-.8-.267-.8-.8c0-.517-.267-.8-.753-.8-.417 0-.847-.357-.963-.8-.115-.44-.484-.8-.82-.8-.335 0-.724-.36-.864-.8-.14-.44-.602-.8-1.027-.8-.506 0-.773-.276-.773-.8 0-.45-.267-.8-.61-.8-.335 0-.781-.45-.99-1-.209-.55-.634-1-.943-1-.31 0-.658-.36-.773-.8-.115-.44-.475-.8-.8-.8-.325 0-.685-.36-.8-.8-.115-.44-.475-.8-.8-.8-.325 0-.685-.36-.8-.8-.115-.44-.484-.8-.82-.8-.335 0-.724-.36-.864-.8-.14-.44-.602-.8-1.027-.8-.506 0-.773-.276-.773-.8 0-.45-.267-.8-.61-.8-.335 0-.781-.45-.99-1-.209-.55-.655-1-.99-1-.343 0-.61-.35-.61-.8 0-.517-.267-.8-.753-.8-.417 0-.847-.357-.963-.8-.115-.44-.475-.8-.8-.8-.325 0-.685-.36-.8-.8-.115-.44-.484-.8-.82-.8-.335 0-.724-.36-.864-.8-.14-.44-.602-.8-1.027-.8-.506 0-.773-.276-.773-.8 0-.45-.267-.8-.61-.8-.335 0-.781-.45-.99-1-.209-.55-.655-1-.99-1-.343 0-.61-.35-.61-.8 0-.517-.267-.8-.753-.8-.417 0-.847-.357-.963-.8-.115-.44-.475-.8-.8-.8-.325 0-.685-.36-.8-.8-.115-.44-.484-.8-.82-.8-.335 0-.724-.36-.864-.8-.14-.44-.602-.8-1.027-.8-.506 0-.773-.276-.773-.8 0-.45-.267-.8-.61-.8-.335 0-.781-.45-.99-1-.209-.55-.655-1-.99-1-.343 0-.61-.35-.61-.8 0-.587-.267-.8-1-.8-.55 0-1-.18-1-.4 0-.22-.63-.4-1.4-.4-.77 0-1.4.18-1.4.4m2.6 37.409c.44.321 25.775 25.546 56.3 56.055l55.5 55.471v18.306c0 10.949-.157 18.72-.391 19.335-.215.565-5.21 5.862-11.1 11.77-33.658 33.762-35.43 35.654-33.385 35.654.315 0 3.16 2.384 5.251 4.4 1.743 1.68 5.067 5.822 6.641 8.276a175.983 175.983 0 0 0 2.238 3.408c.41.596.747 1.316.749 1.6.001.284.36 1.056.797 1.716.437.66.796 1.473.797 1.806.002.333.336 1.233.742 2 .407.767.864 2.194 1.017 3.171.153.977.585 2.687.961 3.8.621 1.838.683 4.85.683 33.023v31l-1 1.832c-1.9 3.48-4.747 6.05-7.458 6.734l-3.014.763c-1.418.36-2.234.267-6.383-.729-5.129-1.232-7.65-6.395-7.858-16.087l-.151-7.088-1.287-.795c-.707-.437-2.034-.914-2.948-1.06-5.07-.811-8.356-7.468-8.78-17.788-.277-6.752-.068-6.334-3.714-7.417-4.201-1.247-7.808-5.814-8.221-10.407-.219-2.436-1.094-7.452-1.653-9.475-.432-1.565-2.183.085-30.684 28.917-2.501 2.53-7.211 7.12-10.467 10.2-3.256 3.08-17.135 16.805-30.841 30.5-20.976 20.958-25.097 24.9-26.031 24.9-1.292 0-111.957-110.509-112.285-112.126-1.002-4.938-.866-35.953.166-37.874.295-.55 16.978-17.439 37.073-37.532l36.536-36.531v-2.794c0-9.652-9.821-20.035-20-21.147-10.246-1.119-16.8-5.479-16.8-11.176 0-1.883-.49-2.019-7.38-2.038-4.722-.012-6.843-.177-8.02-.622-.88-.333-2.1-.764-2.711-.958-3.074-.976-6.428-5.048-6.883-8.357l-.281-2.045-3.063-.022c-8.903-.062-14.799-1.415-18.045-4.139-6.128-5.143-4.085-18.279 3.269-21.02a23.99 23.99 0 0 0 2.376-1.055c1.581-.84 58.681-.838 61.224.003.943.312 2.944.752 4.447.979 1.504.226 2.944.58 3.2.787.257.206 1.071.504 1.809.662 1.184.253 4.35 1.633 6.058 2.639.33.195 1.14.626 1.8.959.66.333 1.668.921 2.24 1.306l2.2 1.481c.638.429 1.468 1.059 1.844 1.4.377.341 1.158.98 1.738 1.42 1.068.812 3.914 3.656 6.205 6.2 1.135 1.261 1.731 2.076 4.067 5.564.382.57.877 1.486 1.1 2.036.223.55.586 1.27.806 1.6.697 1.044 2.476 4.952 2.822 6.2.183.66.593 2.01.911 3 .319.99.792 3.06 1.053 4.6.851 5.028 1.057 6.023 1.342 6.484.171.277 14.286-13.553 36.177-35.447C219.647 54.291 236.16 37.931 236.6 37.68c1.01-.575 1.037-.573 2 .129" fill="#040504"/><path d="M253 125.594c-1.1.473-14.513 14.062-14.614 14.806-.176 1.306.143 1.757 3.714 5.234 3.074 2.992 3.859 3.563 4.637 3.367 1.7-.426 15.362-14.552 15.097-15.609-.209-.831-7.272-8.225-7.802-8.167-.128.014-.592.18-1.032.369m95.806 24.607c-.004.524-12.427 13.221-35.978 36.771-19.785 19.784-36.055 36.287-36.156 36.673-.236.902.456 1.151 3.261 1.172 1.247.01 3.057.17 4.022.357 2.917.563 3.102.397 34.013-30.544 27.765-27.791 30.529-30.464 31.332-30.294.447.095.351-13.638-.1-14.336-.321-.497-.389-.463-.394.201m.04 25.512c-.268.503-12.006 12.428-26.082 26.5-14.077 14.073-25.682 25.947-25.789 26.387-.157.647.286 1.059 2.315 2.152 1.381.743 2.911 1.716 3.401 2.161l.89.809 3.217-3.361c1.77-1.849 12.124-12.302 23.01-23.229l19.792-19.868v-6.232c0-6.657-.008-6.712-.754-5.319M158.87 212.815c-13.604 4.833-10.781 24.162 3.53 24.168 4.589.001 6.077-.597 9.005-3.621 8.79-9.08-.757-24.731-12.535-20.547m-95.658 7.559c.009 5.467.125 7.232.44 6.691.374-.645 7.244 6.092 55.368 54.3 44.907 44.983 55.132 55.035 55.984 55.035 1.399 0 74.976-73.435 75.03-74.886.125-3.318-.147-9.772-.424-10.055-.614-.63-1.584.306-37.557 36.254-22.123 22.108-36.236 35.922-36.853 36.071-.901.218-6.488-5.25-56.5-55.297l-55.5-55.54.012 7.427m.129 23.038.059 6.812 55.418 55.488c33.715 33.757 55.708 55.488 56.158 55.488.446 0 10.652-9.911 25.643-24.9 13.697-13.695 28.016-27.87 31.82-31.5 11.414-10.891 16.17-15.834 17.398-18.085.746-1.367.194-10.715-.632-10.715-.21 0-16.761 16.38-36.781 36.4-29.814 29.814-36.591 36.4-37.452 36.4-1.2 0-111.185-109.858-111.515-111.386-.097-.448-.149 2.251-.116 5.998" fill="#b8d811"/><path d="M200.442 75.2c-23.994 23.997-36.668 36.4-37.195 36.4-1.124 0-1.273-.388-1.656-4.318l-.339-3.482.115 3.8.116 3.8 6.295 6.2c3.462 3.41 6.53 6.65 6.817 7.2.661 1.265 11.784 12.4 12.386 12.4.584 0 14.619 14.112 14.619 14.699 0 .575 58.866 59.559 60.998 61.121.879.644 4.154 3.738 7.277 6.875 5.568 5.595 5.711 5.705 7.417 5.705.957 0 2.777.27 4.043.6 1.267.33 3.78.606 5.585.614 2.401.01 3.709.22 4.88.786.88.425 1.819.779 2.086.786.267.008.666.351.886.762.22.411.992 1.046 1.714 1.411 6.033 3.045 12.598 8.323 16.47 13.241 3.356 4.262 4.297 5.695 5.793 8.819a304.666 304.666 0 0 0 1.644 3.381c.383.77.824 2.12.981 3 .157.88.517 1.96.799 2.4.283.44.725 2.51.982 4.6.619 5.038 1.283 7.639 1.072 4.2-.204-3.337-1.326-9.116-2.033-10.47-.324-.622-.59-1.366-.592-1.655-.002-.524-1.493-4.004-2.688-6.275-2.989-5.683-7.759-11.497-12.466-15.194-1.263-.993-2.687-2.333-3.164-2.977-.476-.645-2.135-1.86-3.687-2.701-2.304-1.248-2.785-1.674-2.624-2.328.108-.44 11.64-12.23 25.626-26.2 13.986-13.97 25.783-25.961 26.215-26.647.778-1.234 1.23-10.776.543-11.463-.502-.502-2.478 1.408-31.469 30.424-30.828 30.854-31.016 31.023-33.933 30.46-.965-.187-2.775-.347-4.022-.357-2.805-.021-3.497-.27-3.261-1.172.101-.386 16.371-16.889 36.156-36.673C336.584 163.217 348.8 150.73 348.8 150.2c0-1.001-110.282-111.4-111.282-111.4-.375 0-17.059 16.38-37.076 36.4M59.736 63.349C46.5 66.042 48.109 85.769 61.6 86.207l3 .098-2.64-.253c-1.453-.138-2.893-.456-3.2-.706-.308-.249-1.113-.572-1.788-.716-3.811-.813-7.169-7.904-5.64-11.908.367-.962.668-2.03.668-2.374 0-.344.36-1.041.8-1.548.44-.507.8-1.032.8-1.166 0-.135 1.034-1.052 2.298-2.039l2.299-1.795h32.401c18.374 0 31.45-.142 30.202-.328-3.929-.586-58.253-.695-61.064-.123m221.592 42.882c38.352 38.355 42.991 43.126 42.683 43.9-.442 1.112-60.594 61.223-61.447 61.406-.922.196-59.47-58.489-59.289-59.429.419-2.179 12.12-2.801 18.617-.991 15.079 4.203 26.256 17.167 27.938 32.409.413 3.74.474 3.771 7.233 3.61l5.734-.136 13.801-13.798c14.798-14.793 14.549-14.465 12.86-16.955-2.169-3.196-2.167-9.212.005-12.918.548-.935.938-2.055.867-2.489-.19-1.153-42.883-44.04-43.842-44.04-.426 0-1.86.559-3.184 1.242-4.097 2.113-10.212 1.794-12.941-.675-1.524-1.38-2.329-.725-17.753 14.433-21.63 21.256-24.715 24.2-25.361 24.2-.709 0-10.306-9.4-11.056-10.83-.633-1.204 59.44-61.97 61.263-61.97.587 0 13.952 13.109 43.872 43.031M123.42 64.345c.552.502 2.962 1.258 3.94 1.236.487-.011 0-.346-1.16-.799-2.108-.823-3.435-1.032-2.78-.437m5.58 1.758c.44.327 1.43.731 2.2.898.77.167 1.829.64 2.354 1.051.525.411 1.245.747 1.6.747 1.333-.004-3.185-2.258-6.154-3.071l-.8-.219.8.594m7.591 3.487c.393.434 1.092.909 1.554 1.056.917.291 2.78 1.55 3.927 2.654.401.385.871.7 1.046.7.38 0 5.862 5.379 7.282 7.146.55.684 1.405 1.722 1.9 2.307.495.585.9 1.288.9 1.563 0 .274.27.602.6.729.33.126.6.481.6.789 0 .307.335.987.745 1.512s.884 1.404 1.055 1.954c.403 1.298 1.8 3.11 1.8 2.334 0-.316-.167-.745-.371-.954-.203-.209-1.008-1.587-1.787-3.061-2.135-4.042-5.603-8.559-8.945-11.648-3.197-2.956-4.088-3.665-7.176-5.705-3.485-2.302-4.287-2.655-3.13-1.376M69.8 86.69c3.897.106 4.48.215 5.1.959.472.567.7.656.7.275 0-1.289-.915-1.525-5.58-1.439l-4.62.085 4.4.12m5.817 3.026c-.09 5.941 6.554 9.461 18.284 9.686 5.77.111 6.279.287 6.727 2.324.934 4.252 6.165 10.15 8.29 9.346.265-.1-.328-.554-1.318-1.008-1.625-.747-2.38-1.352-4.45-3.568-.357-.383-1.095-1.995-1.64-3.583-1.421-4.143-1.38-4.113-5.69-4.113-5.062 0-12.212-.753-13.42-1.414-.55-.301-1.441-.781-1.981-1.066-1.815-.962-2.987-2.505-3.889-5.12-.646-1.875-.901-2.289-.913-1.484m82.399 3.985c-.009.386.344 1.374.784 2.195.44.82.81 2.035.822 2.698.013.663.377 2.016.81 3.006.653 1.494.758 1.596.621.6-.434-3.157-2.995-10.324-3.037-8.499M113.2 111.616c1.87.206 3.813.558 4.319.78 1.375.605 1.956.507 1.24-.208-.446-.446-1.747-.658-4.786-.78l-4.173-.168 3.4.376m7.537 1.582c.735.174 1.536.515 1.78.759.535.535 1.083.577 1.083.082 0-.454-2.241-1.253-3.36-1.198-.523.025-.335.16.497.357m5.223 2.548c4.423 2.907 8.805 8.388 10.725 13.413l.551 1.441-.201-1.55c-.11-.852-.478-1.856-.818-2.231-.339-.375-.617-.972-.617-1.327s-.187-.761-.416-.902c-.229-.141-.845-.936-1.368-1.765-1.059-1.678-5.518-6.425-6.034-6.425-.182 0-.702-.339-1.156-.754-.454-.415-1.276-.881-1.826-1.037-.576-.163-.085.319 1.16 1.137m131.975 13.097c5.167 5.128 5.398 4.176-3.067 12.689-8.859 8.91-8.086 8.661-12.768 4.102-5.126-4.992-5.352-4.098 3.234-12.765 5.991-6.048 7.68-7.532 8.698-7.644.128-.014 1.884 1.615 3.903 3.618M137.414 132.2c.144.88.354 2.093.468 2.695.446 2.357-.128 2.975-37.296 40.153C80.244 195.395 63.6 212.337 63.6 212.697c0 1.376 110.488 111.355 111.6 111.087.617-.15 14.715-13.948 36.853-36.071 35.973-35.948 36.943-36.884 37.557-36.254.277.283.549 6.737.424 10.055-.054 1.451-73.631 74.886-75.03 74.886-.852 0-11.078-10.052-55.988-55.04-62.664-62.772-56.001-56.998-55.756-48.317l.14 4.946 19.4 19.461c81.084 81.339 91.189 91.35 92.204 91.35.819 0 8.197-7.177 37.42-36.4 20.02-20.02 36.571-36.4 36.781-36.4.548 0 .781 1.345.895 5.168.057 1.936.281 3.427.525 3.508.234.078 4.914-4.363 10.399-9.868 12.31-12.354 12.872-12.48 14.167-3.183l.358 2.575-.105-2.8c-.129-3.431-1.524-6.904-2.912-7.253-.504-.126-1.524-1.156-2.291-2.311-3.111-4.687-8.327-8.732-12.641-9.802-4.706-1.168-6.221-1.741-7.708-2.918-2.351-1.859-11.492-11.054-11.492-11.56 0-.572-60.579-61.156-61.152-61.156-.598 0-14.848-14.226-14.848-14.823 0-.589-11.779-12.377-12.367-12.377-.243 0-2.848-2.42-5.789-5.377l-5.346-5.377-.277-2.923c-.152-1.608-.545-3.373-.873-3.923-.58-.973-.588-.957-.334.6m18.68 23.694c2.808 2.802 5.106 5.416 5.106 5.809 0 .399-4.454 5.181-10.1 10.843-32.094 32.188-30.368 30.243-28.704 32.359 3.084 3.92 3.151 11.154.137 14.726-1.191 1.412-.441 2.259 21.166 23.868 23.224 23.227 22.563 22.669 24.784 20.921 2.931-2.305 10.153-2.313 13.117-.013 2.147 1.665 2.087 1.711 16.802-13.008l13.798-13.801.13-5.822c.14-6.262-.045-6.976-1.8-6.976-14.548 0-30.671-13.421-34.357-28.6-1.615-6.646-1.198-17.16.728-18.36.738-.46 59.191 57.374 59.747 59.115.311.974-60.364 61.845-61.646 61.845-1.103 0-86.602-85.491-86.602-86.593 0-1.277 60.31-61.407 61.591-61.407.744 0 2.295 1.294 6.103 5.094m10.104 56.964c10.621 3.487 11.65 18.478 1.602 23.35-2.232 1.082-8.581 1.106-10.563.04-13.629-7.334-5.642-28.183 8.961-23.39m109.427 63.591c-.091 3.79 4.744 9.038 9.211 9.996 2.859.613 3.156 1.239 3.204 6.744.021 2.536.176 5.601.343 6.811.227 1.637.319.553.361-4.24.074-8.492-.471-9.741-4.258-9.758-1.025-.004-5.686-3.15-5.686-3.837 0-.289-.294-.69-.654-.891-.36-.202-1.069-1.606-1.575-3.12-.599-1.792-.929-2.388-.946-1.705m48.963 22.951c0 13.2.05 18.542.112 11.871.061-6.67.061-17.47 0-24-.062-6.529-.112-1.071-.112 12.129m-35.774 3.713c-.063 2.281 4.823 8.113 6.764 8.075.342-.007-.098-.444-.978-.971-2.105-1.261-2.827-2.016-3.806-3.983-1.317-2.648-1.965-3.668-1.98-3.121m8.844 8.376c2.485.263 2.657.744 2.819 7.911.268 11.815 3.278 16.726 10.523 17.169l3.2.196-3.2-.482c-3.821-.577-7.4-2.763-7.4-4.522 0-.286-.244-.665-.543-.841-1.031-.608-1.961-5.716-2.213-12.16-.28-7.163-.453-7.596-2.993-7.493l-1.651.067 1.458.155m25.76 16.711c-.395 1.32-.96 2.67-1.257 3-2.136 2.38-2.959 3.094-4.365 3.79-.878.434-2.046.908-2.596 1.053l-1 .262.956.048c3.459.171 9.861-6.703 9.147-9.821-.1-.439-.455.23-.885 1.668" fill="#f7f8b3"/><path d="M58.764 63.935c-1.044.267-5.164 3.208-5.164 3.686 0 .141-.36.672-.8 1.179-.44.507-.8 1.204-.8 1.548 0 .344-.301 1.412-.668 2.374-1.527 3.999 1.82 11.077 5.634 11.914.672.148 1.596.514 2.053.813.578.379 3.127.637 8.364.848 8.523.343 7.72-.046 9.018 4.367.854 2.902 2.092 4.648 4.01 5.656.544.285 1.439.765 1.989 1.066 1.208.661 8.358 1.414 13.42 1.414 4.31 0 4.269-.03 5.692 4.113.545 1.588 1.283 3.207 1.639 3.598 3.258 3.57 5.415 4.534 10.803 4.832 2.911.161 4.356.414 4.831.844.373.337 1.042.613 1.487.613 1.11 0 3.328.805 3.328 1.207 0 .181.521.444 1.159.584.637.14 1.475.604 1.862 1.032.386.427.88.777 1.097.777.566 0 4.972 4.642 6.098 6.425.523.829 1.139 1.624 1.368 1.765.229.141.416.585.416.985s.265.947.589 1.216c.325.269.695 1.146.823 1.949.128.803.48 2.024.781 2.713.302.689.677 2.547.833 4.128l.283 2.875 5.341 5.372c2.937 2.955 5.54 5.372 5.783 5.372.588 0 12.367 11.788 12.367 12.377 0 .597 14.25 14.823 14.848 14.823.573 0 61.152 60.584 61.152 61.156 0 .506 9.141 9.701 11.492 11.56 1.487 1.177 3.002 1.75 7.708 2.918 4.314 1.07 9.53 5.115 12.641 9.802.767 1.155 1.787 2.185 2.291 2.311 1.49.374 2.741 3.773 3.111 8.453.335 4.235 1.451 8.085 2.516 8.681.353.197.641.595.641.884 0 .687 4.661 3.833 5.686 3.837 3.775.017 4.314 1.25 4.314 9.869v6.551l1.419 2.689c2.241 4.245 4.574 6.089 7.703 6.089 2.461 0 2.645.475 2.922 7.56.252 6.444 1.182 11.552 2.213 12.16.299.176.543.555.543.841 0 .639 1.381 2.112 3.185 3.4 3.185 2.272 10.627 1.098 13.705-2.161 4.026-4.264 3.91-3.262 3.91-33.782 0-20.638-.114-26.525-.558-28.692a66.911 66.911 0 0 1-.84-5.501c-.155-1.526-.52-3.146-.812-3.6-.292-.454-.659-1.545-.816-2.425-.157-.88-.598-2.23-.981-3s-1.123-2.292-1.644-3.381c-1.496-3.124-2.437-4.557-5.793-8.819-3.872-4.918-10.437-10.196-16.47-13.241-.722-.365-1.494-1-1.714-1.411-.22-.411-.619-.754-.886-.762-.267-.007-1.206-.361-2.086-.786-1.171-.566-2.479-.776-4.88-.786-1.805-.008-4.318-.284-5.585-.614-1.266-.33-3.086-.6-4.043-.6-1.706 0-1.849-.11-7.417-5.705-3.123-3.137-6.398-6.231-7.277-6.875-2.132-1.562-60.998-60.546-60.998-61.121 0-.587-14.035-14.699-14.619-14.699-.602 0-11.725-11.135-12.386-12.4-.287-.55-3.351-3.788-6.808-7.195l-6.284-6.195-.298-4.405c-.174-2.576-.569-5.022-.951-5.892-.36-.818-.654-1.991-.654-2.606 0-.615-.36-1.791-.8-2.611-.44-.821-.8-1.829-.8-2.241 0-.411-.335-1.176-.745-1.701-.41-.525-.884-1.404-1.055-1.954-.171-.55-.645-1.429-1.055-1.954-.41-.525-.745-1.205-.745-1.512 0-.308-.27-.663-.6-.789-.33-.127-.6-.455-.6-.729 0-.275-.405-.978-.9-1.563s-1.35-1.623-1.9-2.307c-1.42-1.767-6.902-7.146-7.282-7.146-.175 0-.645-.315-1.046-.7-1.147-1.104-3.01-2.363-3.927-2.654-.462-.147-1.161-.622-1.554-1.056-.393-.435-1.023-.79-1.399-.79-.376 0-1.113-.337-1.638-.748-.525-.411-1.584-.882-2.354-1.046-.77-.164-1.627-.481-1.904-.705-.277-.223-1.337-.561-2.355-.752-1.018-.19-2.412-.657-3.096-1.039-1.29-.717-62.408-1.258-65.081-.575" fill="#f8f8f8"/></g></svg>